<mxfile host="app.diagrams.net" modified="2023-10-26T09:46:49.336Z" agent="Mozilla/5.0 (Windows NT 10.0; Win64; x64) AppleWebKit/537.36 (KHTML, like Gecko) Chrome/118.0.0.0 Safari/537.36" etag="fkr4vXUkccU58b-i07mB" version="22.0.8" type="device">
  <diagram name="Page-1" id="luu7nsKz-WrON0-uHyIJ">
    <mxGraphModel dx="1598" dy="929" grid="1" gridSize="10" guides="1" tooltips="1" connect="1" arrows="1" fold="1" page="1" pageScale="1" pageWidth="850" pageHeight="1100" math="0" shadow="0">
      <root>
        <mxCell id="0" />
        <mxCell id="1" parent="0" />
        <mxCell id="55r9cp8Pj4-Tj-q5VYyH-4" value="Manage notice&lt;br style=&quot;border-color: var(--border-color);&quot;&gt;&lt;span style=&quot;&quot;&gt;4.0&lt;/span&gt;" style="ellipse;whiteSpace=wrap;html=1;" parent="1" vertex="1">
          <mxGeometry x="340" y="380" width="120" height="60" as="geometry" />
        </mxCell>
        <mxCell id="55r9cp8Pj4-Tj-q5VYyH-5" value="HUMAN RESOURCE" style="whiteSpace=wrap;html=1;aspect=fixed;" parent="1" vertex="1">
          <mxGeometry x="30" y="390" width="130" height="130" as="geometry" />
        </mxCell>
        <mxCell id="55r9cp8Pj4-Tj-q5VYyH-6" value="&lt;font style=&quot;border-color: var(--border-color); font-size: 8px;&quot;&gt;&amp;nbsp;&lt;/font&gt;&lt;font style=&quot;border-color: var(--border-color); font-size: 13px;&quot;&gt;Manage&lt;/font&gt;&lt;font style=&quot;border-color: var(--border-color); font-size: 8px;&quot;&gt; &lt;/font&gt;&lt;font style=&quot;border-color: var(--border-color);&quot;&gt;&lt;font style=&quot;font-size: 12px;&quot;&gt;employee &lt;/font&gt;&lt;br&gt;&lt;font style=&quot;font-size: 12px;&quot;&gt;progress&lt;/font&gt;&lt;/font&gt;&lt;br style=&quot;border-color: var(--border-color);&quot;&gt;6.0" style="ellipse;whiteSpace=wrap;html=1;" parent="1" vertex="1">
          <mxGeometry x="340" y="560" width="120" height="80" as="geometry" />
        </mxCell>
        <mxCell id="55r9cp8Pj4-Tj-q5VYyH-14" value="" style="endArrow=classic;html=1;rounded=0;exitX=0.076;exitY=-0.003;exitDx=0;exitDy=0;exitPerimeter=0;entryX=0.026;entryY=0.336;entryDx=0;entryDy=0;entryPerimeter=0;" parent="1" source="55r9cp8Pj4-Tj-q5VYyH-5" target="wvQevzi4ulHk4IMPyb2j-43" edge="1">
          <mxGeometry width="50" height="50" relative="1" as="geometry">
            <mxPoint x="40" y="380" as="sourcePoint" />
            <mxPoint x="340" y="80" as="targetPoint" />
            <Array as="points">
              <mxPoint x="40" y="90" />
            </Array>
          </mxGeometry>
        </mxCell>
        <mxCell id="55r9cp8Pj4-Tj-q5VYyH-15" value="" style="endArrow=classic;html=1;rounded=0;exitX=0.026;exitY=0.665;exitDx=0;exitDy=0;entryX=0.231;entryY=0.001;entryDx=0;entryDy=0;entryPerimeter=0;exitPerimeter=0;" parent="1" source="wvQevzi4ulHk4IMPyb2j-43" target="55r9cp8Pj4-Tj-q5VYyH-5" edge="1">
          <mxGeometry width="50" height="50" relative="1" as="geometry">
            <mxPoint x="410" y="280" as="sourcePoint" />
            <mxPoint x="60" y="380" as="targetPoint" />
            <Array as="points">
              <mxPoint x="60" y="110" />
            </Array>
          </mxGeometry>
        </mxCell>
        <mxCell id="55r9cp8Pj4-Tj-q5VYyH-16" value="" style="endArrow=classic;html=1;rounded=0;exitX=0.384;exitY=-0.002;exitDx=0;exitDy=0;exitPerimeter=0;entryX=0.014;entryY=0.374;entryDx=0;entryDy=0;entryPerimeter=0;" parent="1" source="55r9cp8Pj4-Tj-q5VYyH-5" edge="1" target="wvQevzi4ulHk4IMPyb2j-37">
          <mxGeometry width="50" height="50" relative="1" as="geometry">
            <mxPoint x="69.03999999999996" y="381" as="sourcePoint" />
            <mxPoint x="340.9200000000001" y="192.4799999999999" as="targetPoint" />
            <Array as="points">
              <mxPoint x="80" y="190" />
            </Array>
          </mxGeometry>
        </mxCell>
        <mxCell id="55r9cp8Pj4-Tj-q5VYyH-17" value="" style="endArrow=classic;html=1;rounded=0;entryX=0.539;entryY=0;entryDx=0;entryDy=0;entryPerimeter=0;exitX=0.013;exitY=0.625;exitDx=0;exitDy=0;exitPerimeter=0;" parent="1" target="55r9cp8Pj4-Tj-q5VYyH-5" edge="1" source="wvQevzi4ulHk4IMPyb2j-37">
          <mxGeometry width="50" height="50" relative="1" as="geometry">
            <mxPoint x="344" y="211" as="sourcePoint" />
            <mxPoint x="80" y="370" as="targetPoint" />
            <Array as="points">
              <mxPoint x="100" y="210" />
            </Array>
          </mxGeometry>
        </mxCell>
        <mxCell id="55r9cp8Pj4-Tj-q5VYyH-18" value="" style="endArrow=classic;html=1;rounded=0;entryX=0.016;entryY=0.369;entryDx=0;entryDy=0;entryPerimeter=0;exitX=0.693;exitY=-0.002;exitDx=0;exitDy=0;exitPerimeter=0;" parent="1" target="wvQevzi4ulHk4IMPyb2j-31" edge="1" source="55r9cp8Pj4-Tj-q5VYyH-5">
          <mxGeometry width="50" height="50" relative="1" as="geometry">
            <mxPoint x="95" y="390" as="sourcePoint" />
            <mxPoint x="339.94000000000005" y="294.0200000000001" as="targetPoint" />
            <Array as="points">
              <mxPoint x="120" y="300" />
            </Array>
          </mxGeometry>
        </mxCell>
        <mxCell id="55r9cp8Pj4-Tj-q5VYyH-19" value="" style="endArrow=classic;html=1;rounded=0;exitX=0.016;exitY=0.622;exitDx=0;exitDy=0;exitPerimeter=0;entryX=0.846;entryY=-0.002;entryDx=0;entryDy=0;entryPerimeter=0;" parent="1" edge="1" target="55r9cp8Pj4-Tj-q5VYyH-5" source="wvQevzi4ulHk4IMPyb2j-31">
          <mxGeometry width="50" height="50" relative="1" as="geometry">
            <mxPoint x="340.5999999999999" y="311.76" as="sourcePoint" />
            <mxPoint x="110" y="390" as="targetPoint" />
            <Array as="points">
              <mxPoint x="140" y="320" />
            </Array>
          </mxGeometry>
        </mxCell>
        <mxCell id="55r9cp8Pj4-Tj-q5VYyH-20" value="" style="endArrow=classic;html=1;rounded=0;entryX=0.028;entryY=0.333;entryDx=0;entryDy=0;entryPerimeter=0;exitX=1;exitY=0.077;exitDx=0;exitDy=0;exitPerimeter=0;" parent="1" source="55r9cp8Pj4-Tj-q5VYyH-5" target="55r9cp8Pj4-Tj-q5VYyH-4" edge="1">
          <mxGeometry width="50" height="50" relative="1" as="geometry">
            <mxPoint x="160" y="402.03" as="sourcePoint" />
            <mxPoint x="340" y="402" as="targetPoint" />
          </mxGeometry>
        </mxCell>
        <mxCell id="55r9cp8Pj4-Tj-q5VYyH-21" value="" style="endArrow=classic;html=1;rounded=0;entryX=1;entryY=0.23;entryDx=0;entryDy=0;entryPerimeter=0;exitX=0.028;exitY=0.665;exitDx=0;exitDy=0;exitPerimeter=0;" parent="1" source="55r9cp8Pj4-Tj-q5VYyH-4" target="55r9cp8Pj4-Tj-q5VYyH-5" edge="1">
          <mxGeometry width="50" height="50" relative="1" as="geometry">
            <mxPoint x="330" y="422" as="sourcePoint" />
            <mxPoint x="160" y="421.9200000000001" as="targetPoint" />
          </mxGeometry>
        </mxCell>
        <mxCell id="55r9cp8Pj4-Tj-q5VYyH-22" value="" style="endArrow=classic;html=1;rounded=0;exitX=0.537;exitY=1.001;exitDx=0;exitDy=0;exitPerimeter=0;entryX=0.015;entryY=0.366;entryDx=0;entryDy=0;entryPerimeter=0;" parent="1" source="55r9cp8Pj4-Tj-q5VYyH-5" edge="1" target="wvQevzi4ulHk4IMPyb2j-19">
          <mxGeometry width="50" height="50" relative="1" as="geometry">
            <mxPoint x="70" y="521" as="sourcePoint" />
            <mxPoint x="340" y="721" as="targetPoint" />
            <Array as="points">
              <mxPoint x="100" y="700" />
            </Array>
          </mxGeometry>
        </mxCell>
        <mxCell id="55r9cp8Pj4-Tj-q5VYyH-23" value="" style="endArrow=classic;html=1;rounded=0;entryX=0.385;entryY=1.001;entryDx=0;entryDy=0;entryPerimeter=0;exitX=0.013;exitY=0.623;exitDx=0;exitDy=0;exitPerimeter=0;" parent="1" source="wvQevzi4ulHk4IMPyb2j-19" target="55r9cp8Pj4-Tj-q5VYyH-5" edge="1">
          <mxGeometry width="50" height="50" relative="1" as="geometry">
            <mxPoint x="339.9999999999998" y="741" as="sourcePoint" />
            <mxPoint x="60" y="520" as="targetPoint" />
            <Array as="points">
              <mxPoint x="80" y="720" />
            </Array>
          </mxGeometry>
        </mxCell>
        <mxCell id="55r9cp8Pj4-Tj-q5VYyH-24" value="" style="endArrow=classic;html=1;rounded=0;exitX=0.846;exitY=1.001;exitDx=0;exitDy=0;exitPerimeter=0;entryX=0.015;entryY=0.374;entryDx=0;entryDy=0;entryPerimeter=0;" parent="1" source="55r9cp8Pj4-Tj-q5VYyH-5" target="55r9cp8Pj4-Tj-q5VYyH-6" edge="1">
          <mxGeometry width="50" height="50" relative="1" as="geometry">
            <mxPoint x="160.13" y="589.9499999999999" as="sourcePoint" />
            <mxPoint x="330" y="600" as="targetPoint" />
            <Array as="points">
              <mxPoint x="140" y="590" />
            </Array>
          </mxGeometry>
        </mxCell>
        <mxCell id="55r9cp8Pj4-Tj-q5VYyH-25" value="" style="endArrow=classic;html=1;rounded=0;entryX=0.691;entryY=1.003;entryDx=0;entryDy=0;entryPerimeter=0;exitX=0.013;exitY=0.623;exitDx=0;exitDy=0;exitPerimeter=0;" parent="1" source="55r9cp8Pj4-Tj-q5VYyH-6" target="55r9cp8Pj4-Tj-q5VYyH-5" edge="1">
          <mxGeometry width="50" height="50" relative="1" as="geometry">
            <mxPoint x="330" y="610" as="sourcePoint" />
            <mxPoint x="160" y="609.97" as="targetPoint" />
            <Array as="points">
              <mxPoint x="120" y="610" />
            </Array>
          </mxGeometry>
        </mxCell>
        <mxCell id="55r9cp8Pj4-Tj-q5VYyH-33" value="" style="endArrow=classic;html=1;rounded=0;exitX=0.97;exitY=0.334;exitDx=0;exitDy=0;exitPerimeter=0;" parent="1" source="55r9cp8Pj4-Tj-q5VYyH-4" edge="1">
          <mxGeometry width="50" height="50" relative="1" as="geometry">
            <mxPoint x="460" y="405" as="sourcePoint" />
            <mxPoint x="600" y="400" as="targetPoint" />
          </mxGeometry>
        </mxCell>
        <mxCell id="55r9cp8Pj4-Tj-q5VYyH-34" value="" style="endArrow=classic;html=1;rounded=0;exitX=0.985;exitY=0.375;exitDx=0;exitDy=0;exitPerimeter=0;" parent="1" source="55r9cp8Pj4-Tj-q5VYyH-6" edge="1">
          <mxGeometry width="50" height="50" relative="1" as="geometry">
            <mxPoint x="465" y="604" as="sourcePoint" />
            <mxPoint x="600" y="590" as="targetPoint" />
          </mxGeometry>
        </mxCell>
        <mxCell id="55r9cp8Pj4-Tj-q5VYyH-44" value="" style="endArrow=classic;html=1;rounded=0;entryX=0.971;entryY=0.667;entryDx=0;entryDy=0;entryPerimeter=0;" parent="1" edge="1" target="55r9cp8Pj4-Tj-q5VYyH-4">
          <mxGeometry width="50" height="50" relative="1" as="geometry">
            <mxPoint x="600" y="420" as="sourcePoint" />
            <mxPoint x="458.67999999999984" y="422.28" as="targetPoint" />
          </mxGeometry>
        </mxCell>
        <mxCell id="55r9cp8Pj4-Tj-q5VYyH-45" value="" style="endArrow=none;html=1;rounded=0;" parent="1" edge="1">
          <mxGeometry width="50" height="50" relative="1" as="geometry">
            <mxPoint x="600" y="390" as="sourcePoint" />
            <mxPoint x="720" y="390" as="targetPoint" />
          </mxGeometry>
        </mxCell>
        <mxCell id="55r9cp8Pj4-Tj-q5VYyH-46" value="" style="endArrow=none;html=1;rounded=0;" parent="1" edge="1">
          <mxGeometry width="50" height="50" relative="1" as="geometry">
            <mxPoint x="600" y="430" as="sourcePoint" />
            <mxPoint x="720" y="430" as="targetPoint" />
          </mxGeometry>
        </mxCell>
        <mxCell id="55r9cp8Pj4-Tj-q5VYyH-47" value="" style="endArrow=classic;html=1;rounded=0;entryX=0.986;entryY=0.625;entryDx=0;entryDy=0;entryPerimeter=0;" parent="1" target="55r9cp8Pj4-Tj-q5VYyH-6" edge="1">
          <mxGeometry width="50" height="50" relative="1" as="geometry">
            <mxPoint x="600" y="610" as="sourcePoint" />
            <mxPoint x="461" y="623" as="targetPoint" />
          </mxGeometry>
        </mxCell>
        <mxCell id="55r9cp8Pj4-Tj-q5VYyH-48" value="" style="endArrow=none;html=1;rounded=0;" parent="1" edge="1">
          <mxGeometry width="50" height="50" relative="1" as="geometry">
            <mxPoint x="600" y="579.71" as="sourcePoint" />
            <mxPoint x="720" y="579.71" as="targetPoint" />
          </mxGeometry>
        </mxCell>
        <mxCell id="55r9cp8Pj4-Tj-q5VYyH-49" value="" style="endArrow=none;html=1;rounded=0;" parent="1" edge="1">
          <mxGeometry width="50" height="50" relative="1" as="geometry">
            <mxPoint x="600" y="620" as="sourcePoint" />
            <mxPoint x="720" y="620" as="targetPoint" />
          </mxGeometry>
        </mxCell>
        <mxCell id="3neaD_Rnh4ogwWbG_XFk-2" value="Acknowledgement" style="text;html=1;align=center;verticalAlign=middle;resizable=0;points=[];autosize=1;strokeColor=none;fillColor=none;" parent="1" vertex="1">
          <mxGeometry x="175" y="185" width="120" height="30" as="geometry" />
        </mxCell>
        <mxCell id="3neaD_Rnh4ogwWbG_XFk-4" value="Acknowledgement" style="text;html=1;align=center;verticalAlign=middle;resizable=0;points=[];autosize=1;strokeColor=none;fillColor=none;" parent="1" vertex="1">
          <mxGeometry x="175" y="295" width="120" height="30" as="geometry" />
        </mxCell>
        <mxCell id="3neaD_Rnh4ogwWbG_XFk-7" value="Acknowledgement" style="text;html=1;align=center;verticalAlign=middle;resizable=0;points=[];autosize=1;strokeColor=none;fillColor=none;" parent="1" vertex="1">
          <mxGeometry x="175" y="395" width="120" height="30" as="geometry" />
        </mxCell>
        <mxCell id="3neaD_Rnh4ogwWbG_XFk-9" value="Acknowledgement" style="text;html=1;align=center;verticalAlign=middle;resizable=0;points=[];autosize=1;strokeColor=none;fillColor=none;" parent="1" vertex="1">
          <mxGeometry x="175" y="585" width="120" height="30" as="geometry" />
        </mxCell>
        <mxCell id="3neaD_Rnh4ogwWbG_XFk-14" value="Acknowledgement" style="text;html=1;align=center;verticalAlign=middle;resizable=0;points=[];autosize=1;strokeColor=none;fillColor=none;" parent="1" vertex="1">
          <mxGeometry x="175" y="694" width="120" height="30" as="geometry" />
        </mxCell>
        <mxCell id="3neaD_Rnh4ogwWbG_XFk-22" value="Dashboard" style="text;html=1;align=center;verticalAlign=middle;resizable=0;points=[];autosize=1;strokeColor=none;fillColor=none;" parent="1" vertex="1">
          <mxGeometry x="195" y="85" width="80" height="30" as="geometry" />
        </mxCell>
        <mxCell id="hnSx5kotihBfkD1wqIEy-1" value="" style="endArrow=classic;html=1;rounded=0;exitX=0.232;exitY=1;exitDx=0;exitDy=0;exitPerimeter=0;entryX=0.024;entryY=0.332;entryDx=0;entryDy=0;entryPerimeter=0;" parent="1" target="wvQevzi4ulHk4IMPyb2j-25" edge="1" source="55r9cp8Pj4-Tj-q5VYyH-5">
          <mxGeometry width="50" height="50" relative="1" as="geometry">
            <mxPoint x="50" y="501" as="sourcePoint" />
            <mxPoint x="320" y="790" as="targetPoint" />
            <Array as="points">
              <mxPoint x="60" y="800" />
            </Array>
          </mxGeometry>
        </mxCell>
        <mxCell id="hnSx5kotihBfkD1wqIEy-2" value="" style="endArrow=classic;html=1;rounded=0;entryX=0.077;entryY=1;entryDx=0;entryDy=0;entryPerimeter=0;exitX=0.026;exitY=0.664;exitDx=0;exitDy=0;exitPerimeter=0;" parent="1" edge="1" target="55r9cp8Pj4-Tj-q5VYyH-5" source="wvQevzi4ulHk4IMPyb2j-25">
          <mxGeometry width="50" height="50" relative="1" as="geometry">
            <mxPoint x="340" y="830" as="sourcePoint" />
            <mxPoint x="40" y="500" as="targetPoint" />
            <Array as="points">
              <mxPoint x="40" y="820" />
            </Array>
          </mxGeometry>
        </mxCell>
        <mxCell id="hnSx5kotihBfkD1wqIEy-4" value="Acknowledgement" style="text;html=1;align=center;verticalAlign=middle;resizable=0;points=[];autosize=1;strokeColor=none;fillColor=none;" parent="1" vertex="1">
          <mxGeometry x="175" y="795" width="120" height="30" as="geometry" />
        </mxCell>
        <mxCell id="7hLpZLin1L9-i_LKTx5H-1" value="&lt;font style=&quot;font-size: 12px;&quot;&gt;Email/Password&lt;/font&gt;" style="text;html=1;align=center;verticalAlign=middle;resizable=0;points=[];autosize=1;strokeColor=none;fillColor=none;fontSize=16;" parent="1" vertex="1">
          <mxGeometry x="180" y="64" width="110" height="30" as="geometry" />
        </mxCell>
        <mxCell id="7hLpZLin1L9-i_LKTx5H-3" value="&lt;span style=&quot;font-size: 12px;&quot;&gt;Keep track of employee attendance&lt;br&gt;&lt;/span&gt;" style="text;html=1;align=center;verticalAlign=middle;resizable=0;points=[];autosize=1;strokeColor=none;fillColor=none;fontSize=16;" parent="1" vertex="1">
          <mxGeometry x="123" y="162" width="210" height="30" as="geometry" />
        </mxCell>
        <mxCell id="7hLpZLin1L9-i_LKTx5H-4" value="&lt;span style=&quot;font-size: 12px;&quot;&gt;Approve or reject leave&lt;/span&gt;" style="text;html=1;align=center;verticalAlign=middle;resizable=0;points=[];autosize=1;strokeColor=none;fillColor=none;fontSize=16;" parent="1" vertex="1">
          <mxGeometry x="160" y="272" width="150" height="30" as="geometry" />
        </mxCell>
        <mxCell id="7hLpZLin1L9-i_LKTx5H-6" value="&lt;font style=&quot;font-size: 12px;&quot;&gt;Send notice&lt;/font&gt;" style="text;html=1;align=center;verticalAlign=middle;resizable=0;points=[];autosize=1;strokeColor=none;fillColor=none;fontSize=16;" parent="1" vertex="1">
          <mxGeometry x="190" y="376" width="90" height="30" as="geometry" />
        </mxCell>
        <mxCell id="7hLpZLin1L9-i_LKTx5H-9" value="&lt;font style=&quot;font-size: 12px;&quot;&gt;View/Update&lt;/font&gt;" style="text;html=1;align=center;verticalAlign=middle;resizable=0;points=[];autosize=1;strokeColor=none;fillColor=none;fontSize=16;" parent="1" vertex="1">
          <mxGeometry x="190" y="772" width="90" height="30" as="geometry" />
        </mxCell>
        <mxCell id="7hLpZLin1L9-i_LKTx5H-10" value="&lt;font style=&quot;font-size: 12px;&quot;&gt;Add recruiters detail&lt;/font&gt;" style="text;html=1;align=center;verticalAlign=middle;resizable=0;points=[];autosize=1;strokeColor=none;fillColor=none;fontSize=16;" parent="1" vertex="1">
          <mxGeometry x="170" y="670" width="130" height="30" as="geometry" />
        </mxCell>
        <mxCell id="zB740yGBhcSUL20eaOWh-4" value="notice" style="text;html=1;align=center;verticalAlign=middle;resizable=0;points=[];autosize=1;strokeColor=none;fillColor=none;" parent="1" vertex="1">
          <mxGeometry x="630" y="395" width="60" height="30" as="geometry" />
        </mxCell>
        <mxCell id="zB740yGBhcSUL20eaOWh-5" value="progress" style="text;html=1;align=center;verticalAlign=middle;resizable=0;points=[];autosize=1;strokeColor=none;fillColor=none;" parent="1" vertex="1">
          <mxGeometry x="625" y="584" width="70" height="30" as="geometry" />
        </mxCell>
        <mxCell id="wvQevzi4ulHk4IMPyb2j-1" value="Analyze employee performance" style="text;html=1;align=center;verticalAlign=middle;resizable=0;points=[];autosize=1;strokeColor=none;fillColor=none;" vertex="1" parent="1">
          <mxGeometry x="145" y="564" width="190" height="30" as="geometry" />
        </mxCell>
        <mxCell id="wvQevzi4ulHk4IMPyb2j-2" value="Manage project&lt;br style=&quot;border-color: var(--border-color);&quot;&gt;5.0" style="ellipse;whiteSpace=wrap;html=1;" vertex="1" parent="1">
          <mxGeometry x="340" y="470" width="120" height="60" as="geometry" />
        </mxCell>
        <mxCell id="wvQevzi4ulHk4IMPyb2j-3" value="" style="endArrow=classic;html=1;rounded=0;entryX=0.027;entryY=0.334;entryDx=0;entryDy=0;entryPerimeter=0;exitX=1.001;exitY=0.77;exitDx=0;exitDy=0;exitPerimeter=0;" edge="1" parent="1" target="wvQevzi4ulHk4IMPyb2j-2" source="55r9cp8Pj4-Tj-q5VYyH-5">
          <mxGeometry width="50" height="50" relative="1" as="geometry">
            <mxPoint x="160" y="492.03" as="sourcePoint" />
            <mxPoint x="340" y="492" as="targetPoint" />
          </mxGeometry>
        </mxCell>
        <mxCell id="wvQevzi4ulHk4IMPyb2j-4" value="" style="endArrow=classic;html=1;rounded=0;entryX=1.001;entryY=0.922;entryDx=0;entryDy=0;entryPerimeter=0;exitX=0.028;exitY=0.668;exitDx=0;exitDy=0;exitPerimeter=0;" edge="1" parent="1" source="wvQevzi4ulHk4IMPyb2j-2" target="55r9cp8Pj4-Tj-q5VYyH-5">
          <mxGeometry width="50" height="50" relative="1" as="geometry">
            <mxPoint x="330" y="512" as="sourcePoint" />
            <mxPoint x="160" y="511.9200000000001" as="targetPoint" />
          </mxGeometry>
        </mxCell>
        <mxCell id="wvQevzi4ulHk4IMPyb2j-5" value="" style="endArrow=classic;html=1;rounded=0;exitX=0.972;exitY=0.335;exitDx=0;exitDy=0;exitPerimeter=0;" edge="1" parent="1" source="wvQevzi4ulHk4IMPyb2j-2">
          <mxGeometry width="50" height="50" relative="1" as="geometry">
            <mxPoint x="460" y="495" as="sourcePoint" />
            <mxPoint x="600" y="490" as="targetPoint" />
          </mxGeometry>
        </mxCell>
        <mxCell id="wvQevzi4ulHk4IMPyb2j-6" value="" style="endArrow=classic;html=1;rounded=0;entryX=0.97;entryY=0.667;entryDx=0;entryDy=0;entryPerimeter=0;" edge="1" parent="1" target="wvQevzi4ulHk4IMPyb2j-2">
          <mxGeometry width="50" height="50" relative="1" as="geometry">
            <mxPoint x="600" y="510" as="sourcePoint" />
            <mxPoint x="458.67999999999984" y="512.28" as="targetPoint" />
          </mxGeometry>
        </mxCell>
        <mxCell id="wvQevzi4ulHk4IMPyb2j-7" value="" style="endArrow=none;html=1;rounded=0;" edge="1" parent="1">
          <mxGeometry width="50" height="50" relative="1" as="geometry">
            <mxPoint x="600" y="480" as="sourcePoint" />
            <mxPoint x="720" y="480" as="targetPoint" />
          </mxGeometry>
        </mxCell>
        <mxCell id="wvQevzi4ulHk4IMPyb2j-9" value="Acknowledgement" style="text;html=1;align=center;verticalAlign=middle;resizable=0;points=[];autosize=1;strokeColor=none;fillColor=none;" vertex="1" parent="1">
          <mxGeometry x="175" y="486" width="120" height="30" as="geometry" />
        </mxCell>
        <mxCell id="wvQevzi4ulHk4IMPyb2j-10" value="View project details" style="text;html=1;align=center;verticalAlign=middle;resizable=0;points=[];autosize=1;strokeColor=none;fillColor=none;fontSize=12;" vertex="1" parent="1">
          <mxGeometry x="170" y="466" width="130" height="30" as="geometry" />
        </mxCell>
        <mxCell id="wvQevzi4ulHk4IMPyb2j-11" value="project" style="text;html=1;align=center;verticalAlign=middle;resizable=0;points=[];autosize=1;strokeColor=none;fillColor=none;" vertex="1" parent="1">
          <mxGeometry x="630" y="485" width="60" height="30" as="geometry" />
        </mxCell>
        <mxCell id="wvQevzi4ulHk4IMPyb2j-12" value="" style="endArrow=none;html=1;rounded=0;" edge="1" parent="1">
          <mxGeometry width="50" height="50" relative="1" as="geometry">
            <mxPoint x="600" y="520" as="sourcePoint" />
            <mxPoint x="720" y="520" as="targetPoint" />
          </mxGeometry>
        </mxCell>
        <mxCell id="wvQevzi4ulHk4IMPyb2j-19" value="Manage recruiter details&lt;br style=&quot;border-color: var(--border-color);&quot;&gt;7.0" style="ellipse;whiteSpace=wrap;html=1;" vertex="1" parent="1">
          <mxGeometry x="340" y="670" width="120" height="80" as="geometry" />
        </mxCell>
        <mxCell id="wvQevzi4ulHk4IMPyb2j-20" value="" style="endArrow=classic;html=1;rounded=0;exitX=0.985;exitY=0.375;exitDx=0;exitDy=0;exitPerimeter=0;" edge="1" parent="1" source="wvQevzi4ulHk4IMPyb2j-19">
          <mxGeometry width="50" height="50" relative="1" as="geometry">
            <mxPoint x="465" y="714" as="sourcePoint" />
            <mxPoint x="600" y="700" as="targetPoint" />
          </mxGeometry>
        </mxCell>
        <mxCell id="wvQevzi4ulHk4IMPyb2j-21" value="" style="endArrow=classic;html=1;rounded=0;entryX=0.986;entryY=0.625;entryDx=0;entryDy=0;entryPerimeter=0;" edge="1" parent="1" target="wvQevzi4ulHk4IMPyb2j-19">
          <mxGeometry width="50" height="50" relative="1" as="geometry">
            <mxPoint x="600" y="720" as="sourcePoint" />
            <mxPoint x="461" y="733" as="targetPoint" />
          </mxGeometry>
        </mxCell>
        <mxCell id="wvQevzi4ulHk4IMPyb2j-22" value="" style="endArrow=none;html=1;rounded=0;" edge="1" parent="1">
          <mxGeometry width="50" height="50" relative="1" as="geometry">
            <mxPoint x="600" y="689.71" as="sourcePoint" />
            <mxPoint x="720" y="689.71" as="targetPoint" />
          </mxGeometry>
        </mxCell>
        <mxCell id="wvQevzi4ulHk4IMPyb2j-23" value="" style="endArrow=none;html=1;rounded=0;" edge="1" parent="1">
          <mxGeometry width="50" height="50" relative="1" as="geometry">
            <mxPoint x="600" y="730" as="sourcePoint" />
            <mxPoint x="720" y="730" as="targetPoint" />
          </mxGeometry>
        </mxCell>
        <mxCell id="wvQevzi4ulHk4IMPyb2j-24" value="recruiters" style="text;html=1;align=center;verticalAlign=middle;resizable=0;points=[];autosize=1;strokeColor=none;fillColor=none;" vertex="1" parent="1">
          <mxGeometry x="625" y="694" width="70" height="30" as="geometry" />
        </mxCell>
        <mxCell id="wvQevzi4ulHk4IMPyb2j-25" value="&lt;font style=&quot;border-color: var(--border-color);&quot;&gt;Manage&lt;/font&gt;&amp;nbsp;&lt;font style=&quot;border-color: var(--border-color);&quot;&gt;appraisal&lt;/font&gt;&lt;span style=&quot;border-color: var(--border-color); font-size: 8px;&quot;&gt;&amp;nbsp;&lt;br style=&quot;border-color: var(--border-color);&quot;&gt;&lt;/span&gt;&lt;span style=&quot;&quot;&gt;8.0&lt;/span&gt;" style="ellipse;whiteSpace=wrap;html=1;" vertex="1" parent="1">
          <mxGeometry x="340" y="780" width="120" height="60" as="geometry" />
        </mxCell>
        <mxCell id="wvQevzi4ulHk4IMPyb2j-26" value="" style="endArrow=classic;html=1;rounded=0;exitX=0.972;exitY=0.335;exitDx=0;exitDy=0;exitPerimeter=0;" edge="1" parent="1" source="wvQevzi4ulHk4IMPyb2j-25">
          <mxGeometry width="50" height="50" relative="1" as="geometry">
            <mxPoint x="460" y="805" as="sourcePoint" />
            <mxPoint x="600" y="800" as="targetPoint" />
          </mxGeometry>
        </mxCell>
        <mxCell id="wvQevzi4ulHk4IMPyb2j-27" value="" style="endArrow=classic;html=1;rounded=0;entryX=0.97;entryY=0.667;entryDx=0;entryDy=0;entryPerimeter=0;" edge="1" parent="1" target="wvQevzi4ulHk4IMPyb2j-25">
          <mxGeometry width="50" height="50" relative="1" as="geometry">
            <mxPoint x="600" y="820" as="sourcePoint" />
            <mxPoint x="458.67999999999984" y="822.28" as="targetPoint" />
          </mxGeometry>
        </mxCell>
        <mxCell id="wvQevzi4ulHk4IMPyb2j-28" value="" style="endArrow=none;html=1;rounded=0;" edge="1" parent="1">
          <mxGeometry width="50" height="50" relative="1" as="geometry">
            <mxPoint x="600" y="790" as="sourcePoint" />
            <mxPoint x="720" y="790" as="targetPoint" />
          </mxGeometry>
        </mxCell>
        <mxCell id="wvQevzi4ulHk4IMPyb2j-29" value="users" style="text;html=1;align=center;verticalAlign=middle;resizable=0;points=[];autosize=1;strokeColor=none;fillColor=none;" vertex="1" parent="1">
          <mxGeometry x="635" y="795" width="50" height="30" as="geometry" />
        </mxCell>
        <mxCell id="wvQevzi4ulHk4IMPyb2j-30" value="" style="endArrow=none;html=1;rounded=0;" edge="1" parent="1">
          <mxGeometry width="50" height="50" relative="1" as="geometry">
            <mxPoint x="600" y="830" as="sourcePoint" />
            <mxPoint x="720" y="830" as="targetPoint" />
          </mxGeometry>
        </mxCell>
        <mxCell id="wvQevzi4ulHk4IMPyb2j-31" value="Manages employee&lt;br style=&quot;border-color: var(--border-color);&quot;&gt;leave&lt;br style=&quot;border-color: var(--border-color);&quot;&gt;&lt;span style=&quot;border-color: var(--border-color);&quot;&gt;3.0&lt;/span&gt;" style="ellipse;whiteSpace=wrap;html=1;" vertex="1" parent="1">
          <mxGeometry x="340" y="270" width="120" height="80" as="geometry" />
        </mxCell>
        <mxCell id="wvQevzi4ulHk4IMPyb2j-32" value="" style="endArrow=classic;html=1;rounded=0;exitX=0.985;exitY=0.375;exitDx=0;exitDy=0;exitPerimeter=0;" edge="1" parent="1" source="wvQevzi4ulHk4IMPyb2j-31">
          <mxGeometry width="50" height="50" relative="1" as="geometry">
            <mxPoint x="465" y="314" as="sourcePoint" />
            <mxPoint x="600" y="300" as="targetPoint" />
          </mxGeometry>
        </mxCell>
        <mxCell id="wvQevzi4ulHk4IMPyb2j-33" value="" style="endArrow=classic;html=1;rounded=0;entryX=0.986;entryY=0.625;entryDx=0;entryDy=0;entryPerimeter=0;" edge="1" parent="1" target="wvQevzi4ulHk4IMPyb2j-31">
          <mxGeometry width="50" height="50" relative="1" as="geometry">
            <mxPoint x="600" y="320" as="sourcePoint" />
            <mxPoint x="461" y="333" as="targetPoint" />
          </mxGeometry>
        </mxCell>
        <mxCell id="wvQevzi4ulHk4IMPyb2j-34" value="" style="endArrow=none;html=1;rounded=0;" edge="1" parent="1">
          <mxGeometry width="50" height="50" relative="1" as="geometry">
            <mxPoint x="600" y="289.71000000000004" as="sourcePoint" />
            <mxPoint x="720" y="289.71000000000004" as="targetPoint" />
          </mxGeometry>
        </mxCell>
        <mxCell id="wvQevzi4ulHk4IMPyb2j-35" value="" style="endArrow=none;html=1;rounded=0;" edge="1" parent="1">
          <mxGeometry width="50" height="50" relative="1" as="geometry">
            <mxPoint x="600" y="330" as="sourcePoint" />
            <mxPoint x="720" y="330" as="targetPoint" />
          </mxGeometry>
        </mxCell>
        <mxCell id="wvQevzi4ulHk4IMPyb2j-36" value="leave" style="text;html=1;align=center;verticalAlign=middle;resizable=0;points=[];autosize=1;strokeColor=none;fillColor=none;" vertex="1" parent="1">
          <mxGeometry x="635" y="294" width="50" height="30" as="geometry" />
        </mxCell>
        <mxCell id="wvQevzi4ulHk4IMPyb2j-37" value="Manage&lt;br style=&quot;border-color: var(--border-color);&quot;&gt;employees&lt;br style=&quot;border-color: var(--border-color);&quot;&gt;&lt;span style=&quot;border-color: var(--border-color);&quot;&gt;&amp;nbsp;attendance&lt;/span&gt;&lt;br style=&quot;border-color: var(--border-color);&quot;&gt;&lt;span style=&quot;border-color: var(--border-color);&quot;&gt;2.0&lt;/span&gt;" style="ellipse;whiteSpace=wrap;html=1;" vertex="1" parent="1">
          <mxGeometry x="340" y="160" width="120" height="80" as="geometry" />
        </mxCell>
        <mxCell id="wvQevzi4ulHk4IMPyb2j-38" value="" style="endArrow=classic;html=1;rounded=0;exitX=0.985;exitY=0.375;exitDx=0;exitDy=0;exitPerimeter=0;" edge="1" parent="1" source="wvQevzi4ulHk4IMPyb2j-37">
          <mxGeometry width="50" height="50" relative="1" as="geometry">
            <mxPoint x="465" y="204" as="sourcePoint" />
            <mxPoint x="600" y="190" as="targetPoint" />
          </mxGeometry>
        </mxCell>
        <mxCell id="wvQevzi4ulHk4IMPyb2j-39" value="" style="endArrow=classic;html=1;rounded=0;entryX=0.986;entryY=0.625;entryDx=0;entryDy=0;entryPerimeter=0;" edge="1" parent="1" target="wvQevzi4ulHk4IMPyb2j-37">
          <mxGeometry width="50" height="50" relative="1" as="geometry">
            <mxPoint x="600" y="210" as="sourcePoint" />
            <mxPoint x="461" y="223" as="targetPoint" />
          </mxGeometry>
        </mxCell>
        <mxCell id="wvQevzi4ulHk4IMPyb2j-40" value="" style="endArrow=none;html=1;rounded=0;" edge="1" parent="1">
          <mxGeometry width="50" height="50" relative="1" as="geometry">
            <mxPoint x="600" y="179.71000000000004" as="sourcePoint" />
            <mxPoint x="720" y="179.71000000000004" as="targetPoint" />
          </mxGeometry>
        </mxCell>
        <mxCell id="wvQevzi4ulHk4IMPyb2j-41" value="" style="endArrow=none;html=1;rounded=0;" edge="1" parent="1">
          <mxGeometry width="50" height="50" relative="1" as="geometry">
            <mxPoint x="600" y="220" as="sourcePoint" />
            <mxPoint x="720" y="220" as="targetPoint" />
          </mxGeometry>
        </mxCell>
        <mxCell id="wvQevzi4ulHk4IMPyb2j-42" value="attendance" style="text;html=1;align=center;verticalAlign=middle;resizable=0;points=[];autosize=1;strokeColor=none;fillColor=none;" vertex="1" parent="1">
          <mxGeometry x="620" y="184" width="80" height="30" as="geometry" />
        </mxCell>
        <mxCell id="wvQevzi4ulHk4IMPyb2j-43" value="Login&lt;br&gt;1.0" style="ellipse;whiteSpace=wrap;html=1;" vertex="1" parent="1">
          <mxGeometry x="340" y="70" width="120" height="60" as="geometry" />
        </mxCell>
        <mxCell id="wvQevzi4ulHk4IMPyb2j-44" value="" style="endArrow=classic;html=1;rounded=0;exitX=0.97;exitY=0.334;exitDx=0;exitDy=0;exitPerimeter=0;" edge="1" parent="1" source="wvQevzi4ulHk4IMPyb2j-43">
          <mxGeometry width="50" height="50" relative="1" as="geometry">
            <mxPoint x="460" y="95" as="sourcePoint" />
            <mxPoint x="600" y="90" as="targetPoint" />
          </mxGeometry>
        </mxCell>
        <mxCell id="wvQevzi4ulHk4IMPyb2j-45" value="" style="endArrow=classic;html=1;rounded=0;entryX=0.971;entryY=0.667;entryDx=0;entryDy=0;entryPerimeter=0;" edge="1" parent="1" target="wvQevzi4ulHk4IMPyb2j-43">
          <mxGeometry width="50" height="50" relative="1" as="geometry">
            <mxPoint x="600" y="110" as="sourcePoint" />
            <mxPoint x="458.67999999999984" y="112.27999999999997" as="targetPoint" />
          </mxGeometry>
        </mxCell>
        <mxCell id="wvQevzi4ulHk4IMPyb2j-46" value="" style="endArrow=none;html=1;rounded=0;" edge="1" parent="1">
          <mxGeometry width="50" height="50" relative="1" as="geometry">
            <mxPoint x="600" y="80" as="sourcePoint" />
            <mxPoint x="720" y="80" as="targetPoint" />
          </mxGeometry>
        </mxCell>
        <mxCell id="wvQevzi4ulHk4IMPyb2j-47" value="" style="endArrow=none;html=1;rounded=0;" edge="1" parent="1">
          <mxGeometry width="50" height="50" relative="1" as="geometry">
            <mxPoint x="600" y="120" as="sourcePoint" />
            <mxPoint x="720" y="120" as="targetPoint" />
          </mxGeometry>
        </mxCell>
        <mxCell id="wvQevzi4ulHk4IMPyb2j-48" value="users" style="text;html=1;align=center;verticalAlign=middle;resizable=0;points=[];autosize=1;strokeColor=none;fillColor=none;" vertex="1" parent="1">
          <mxGeometry x="635" y="85" width="50" height="30" as="geometry" />
        </mxCell>
      </root>
    </mxGraphModel>
  </diagram>
</mxfile>
